<svg width="21" height="17" viewBox="0 0 21 17" fill="none" xmlns="http://www.w3.org/2000/svg">
<path d="M21.4821 5.94217V14.9649C21.4821 15.4649 21.2986 15.8929 20.9314 16.249C20.5642 16.6051 20.1228 16.7831 19.6071 16.7831H2.35715C1.84152 16.7831 1.40012 16.6051 1.03293 16.249C0.665741 15.8929 0.482147 15.4649 0.482147 14.9649V5.94217C0.825897 6.31338 1.22043 6.64293 1.66574 6.93081C4.49387 8.79444 6.43527 10.1013 7.48996 10.8513C7.93527 11.1694 8.2966 11.4176 8.57394 11.5956C8.85129 11.7736 9.22043 11.9554 9.68137 12.141C10.1423 12.3266 10.572 12.4194 10.9704 12.4194H10.9821H10.9939C11.3923 12.4194 11.822 12.3266 12.2829 12.141C12.7439 11.9554 13.113 11.7736 13.3904 11.5956C13.6677 11.4176 14.029 11.1694 14.4743 10.8513C15.8025 9.91944 17.7478 8.61263 20.3103 6.93081C20.7556 6.63535 21.1462 6.30581 21.4821 5.94217ZM21.4821 2.60126C21.4821 3.19975 21.2907 3.77172 20.9079 4.31717C20.5251 4.86263 20.0486 5.32854 19.4782 5.7149C16.5407 7.69217 14.7126 8.92323 13.9939 9.40808C13.9157 9.46111 13.7497 9.57664 13.4958 9.75467C13.2419 9.9327 13.031 10.0766 12.863 10.1865C12.695 10.2963 12.4919 10.4194 12.2536 10.5558C12.0154 10.6922 11.7907 10.7944 11.5798 10.8626C11.3689 10.9308 11.1736 10.9649 10.9939 10.9649H10.9821H10.9704C10.7907 10.9649 10.5954 10.9308 10.3845 10.8626C10.1736 10.7944 9.94894 10.6922 9.71066 10.5558C9.47238 10.4194 9.26926 10.2963 9.10129 10.1865C8.93332 10.0766 8.72238 9.9327 8.46848 9.75467C8.21457 9.57664 8.04855 9.46111 7.97043 9.40808C7.25949 8.92323 6.23605 8.23194 4.90012 7.33422C3.56418 6.43649 2.7634 5.89672 2.49777 5.7149C2.0134 5.39672 1.55637 4.95922 1.12668 4.4024C0.696991 3.84558 0.482147 3.32854 0.482147 2.85126C0.482147 2.26035 0.644257 1.76793 0.968475 1.37399C1.29269 0.98005 1.75558 0.783081 2.35715 0.783081H19.6071C20.115 0.783081 20.5544 0.961111 20.9255 1.31717C21.2966 1.67323 21.4821 2.10126 21.4821 2.60126Z" fill="#495057"/>
</svg>
