<svg width="14" height="17" viewBox="0 0 14 17" fill="none" xmlns="http://www.w3.org/2000/svg">
<g clip-path="url(#clip0_5_1385)">
<path d="M4.11366 7.64023H9.90958V5.46676C9.90958 4.6668 9.62658 3.98382 9.06057 3.41781C8.49456 2.8518 7.81158 2.5688 7.01162 2.5688C6.21166 2.5688 5.52868 2.8518 4.96267 3.41781C4.39666 3.98382 4.11366 4.6668 4.11366 5.46676V7.64023ZM13.532 8.72696V15.2474C13.532 15.5492 13.4264 15.8058 13.2151 16.0171C13.0038 16.2285 12.7472 16.3341 12.4453 16.3341H1.57795C1.27607 16.3341 1.01948 16.2285 0.808175 16.0171C0.596866 15.8058 0.491211 15.5492 0.491211 15.2474V8.72696C0.491211 8.42509 0.596866 8.1685 0.808175 7.95719C1.01948 7.74588 1.27607 7.64023 1.57795 7.64023H1.94019V5.46676C1.94019 4.07815 2.43828 2.88576 3.43445 1.88959C4.43062 0.893417 5.62301 0.39533 7.01162 0.39533C8.40023 0.39533 9.59262 0.893417 10.5888 1.88959C11.585 2.88576 12.083 4.07815 12.083 5.46676V7.64023H12.4453C12.7472 7.64023 13.0038 7.74588 13.2151 7.95719C13.4264 8.1685 13.532 8.42509 13.532 8.72696Z" fill="#495057"/>
</g>
<defs>
<clipPath id="clip0_5_1385">
<rect width="14" height="17" fill="white" transform="matrix(1 0 0 -1 0 17)"/>
</clipPath>
</defs>
</svg>
