<svg width="70" height="70" viewBox="0 0 70 70" fill="none" xmlns="http://www.w3.org/2000/svg">
<g clip-path="url(#clip0_923_5438)">
<path d="M7.77778 70C5.63889 70 3.80852 69.2391 2.28667 67.7172C0.764815 66.1954 0.00259259 64.3637 0 62.2222V7.77778C0 5.63889 0.762222 3.80852 2.28667 2.28667C3.81111 0.764815 5.64148 0.00259259 7.77778 0H38.8889C39.9907 0 40.915 0.373334 41.6617 1.12C42.4083 1.86667 42.7804 2.78963 42.7778 3.88889C42.7778 4.99074 42.4044 5.915 41.6578 6.66166C40.9111 7.40833 39.9881 7.78037 38.8889 7.77778H7.77778V62.2222H62.2222V31.1111C62.2222 30.0093 62.5955 29.0863 63.3422 28.3422C64.0889 27.5981 65.0118 27.2248 66.1111 27.2222C67.213 27.2222 68.1372 27.5956 68.8839 28.3422C69.6305 29.0889 70.0026 30.0118 70 31.1111V62.2222C70 64.3611 69.2391 66.1928 67.7172 67.7172C66.1954 69.2417 64.3637 70.0026 62.2222 70H7.77778ZM54.4444 15.5556H50.5555C49.4537 15.5556 48.5307 15.1822 47.7867 14.4356C47.0426 13.6889 46.6693 12.7659 46.6667 11.6667C46.6667 10.5648 47.04 9.64185 47.7867 8.89778C48.5333 8.1537 49.4563 7.78037 50.5555 7.77778H54.4444V3.88889C54.4444 2.78704 54.8178 1.86407 55.5644 1.12C56.3111 0.375926 57.2341 0.00259259 58.3333 0C59.4352 0 60.3594 0.373334 61.1061 1.12C61.8528 1.86667 62.2248 2.78963 62.2222 3.88889V7.77778H66.1111C67.213 7.77778 68.1372 8.15111 68.8839 8.89778C69.6305 9.64444 70.0026 10.5674 70 11.6667C70 12.7685 69.6267 13.6928 68.88 14.4394C68.1333 15.1861 67.2104 15.5581 66.1111 15.5556H62.2222V19.4444C62.2222 20.5463 61.8489 21.4706 61.1022 22.2172C60.3555 22.9639 59.4326 23.3359 58.3333 23.3333C57.2315 23.3333 56.3085 22.96 55.5644 22.2133C54.8204 21.4667 54.447 20.5437 54.4444 19.4444V15.5556ZM32.0833 50.5555L24.8889 40.9305C24.5 40.412 23.9815 40.1528 23.3333 40.1528C22.6852 40.1528 22.1667 40.412 21.7778 40.9305L14 51.3333C13.4815 51.9815 13.4167 52.662 13.8056 53.375C14.1944 54.088 14.7778 54.4444 15.5556 54.4444H54.4444C55.2222 54.4444 55.8055 54.088 56.1944 53.375C56.5833 52.662 56.5185 51.9815 56 51.3333L45.3055 37.0417C44.9167 36.5231 44.3981 36.2639 43.75 36.2639C43.1018 36.2639 42.5833 36.5231 42.1944 37.0417L32.0833 50.5555Z" fill="#919191"/>
</g>
<defs>
<clipPath id="clip0_923_5438">
<rect width="70" height="70" fill="white"/>
</clipPath>
</defs>
</svg>

