<svg width="24" height="25" viewBox="0 0 24 25" fill="none" xmlns="http://www.w3.org/2000/svg">
<path d="M17.75 2.89966C18.0455 2.89966 18.3381 2.95786 18.611 3.07093C18.884 3.184 19.1321 3.34974 19.341 3.55867C19.5499 3.7676 19.7157 4.01564 19.8287 4.28862C19.9418 4.5616 20 4.85418 20 5.14966V20.6547C20 20.9501 19.9418 21.2427 19.8287 21.5157C19.7157 21.7887 19.5499 22.0367 19.341 22.2456C19.1321 22.4546 18.884 22.6203 18.611 22.7334C18.3381 22.8465 18.0455 22.9047 17.75 22.9047H6.25C5.95453 22.9047 5.66194 22.8465 5.38896 22.7334C5.11598 22.6203 4.86794 22.4546 4.65901 22.2456C4.45008 22.0367 4.28434 21.7887 4.17127 21.5157C4.0582 21.2427 4 20.9501 4 20.6547V5.14966C3.99993 4.57953 4.2163 4.03064 4.60537 3.6139C4.99444 3.19717 5.52721 2.94368 6.096 2.90466L6.25 2.89966H17.75ZM18.5 16.8997H5.5V20.6547C5.5 21.0687 5.836 21.4047 6.25 21.4047H17.75C17.9489 21.4047 18.1397 21.3256 18.2803 21.185C18.421 21.0443 18.5 20.8536 18.5 20.6547V16.8997ZM7.751 18.3997H16.25C16.44 18.3997 16.6229 18.4719 16.7618 18.6016C16.9006 18.7314 16.9851 18.909 16.998 19.0985C17.011 19.2881 16.9515 19.4755 16.8316 19.623C16.7117 19.7704 16.5402 19.8668 16.352 19.8927L16.25 19.8997H7.751C7.56106 19.8993 7.37832 19.827 7.23966 19.6972C7.101 19.5674 7.01675 19.3898 7.00393 19.2003C6.99111 19.0108 7.05067 18.8235 7.17059 18.6762C7.2905 18.5289 7.46183 18.4325 7.65 18.4067L7.751 18.3997ZM17.75 4.39966H6.25L6.148 4.40666C5.96845 4.43131 5.80389 4.52014 5.68477 4.65673C5.56564 4.79332 5.50001 4.96842 5.5 5.14966V15.3997H8V13.1457C8 12.4977 8.492 11.9657 9.122 11.9017L9.25 11.8947H14.75C15.397 11.8947 15.93 12.3867 15.993 13.0177L16 13.1447V15.3997H18.5V5.14966C18.5 4.95075 18.421 4.75998 18.2803 4.61933C18.1397 4.47868 17.9489 4.39966 17.75 4.39966ZM12 5.89566C12.663 5.89566 13.2989 6.15905 13.7678 6.62789C14.2366 7.09673 14.5 7.73262 14.5 8.39566C14.5 9.0587 14.2366 9.69458 13.7678 10.1634C13.2989 10.6323 12.663 10.8957 12 10.8957C11.337 10.8957 10.7011 10.6323 10.2322 10.1634C9.76339 9.69458 9.5 9.0587 9.5 8.39566C9.5 7.73262 9.76339 7.09673 10.2322 6.62789C10.7011 6.15905 11.337 5.89566 12 5.89566Z" fill="#495057"/>
</svg>
