<svg width="20" height="20" viewBox="0 0 20 20" fill="none" xmlns="http://www.w3.org/2000/svg">
<g clip-path="url(#clip0_161_2513)">
<path d="M14 2.88544H17C17.5304 2.88544 18.0391 3.07777 18.4142 3.42012C18.7893 3.76247 19 4.2268 19 4.71095V5.62371M14 17.4896H17C17.5304 17.4896 18.0391 17.2972 18.4142 16.9549C18.7893 16.6125 19 16.1482 19 15.664V14.7513M14.001 10.1875H19.001M19.001 10.1875L17.001 8.36198M19.001 10.1875L17.001 12.013M2.425 16.9675L8.425 18.6104C8.72368 18.6923 9.03919 18.7092 9.34633 18.6599C9.65347 18.6106 9.94372 18.4965 10.1939 18.3265C10.4441 18.1566 10.6473 17.9357 10.7872 17.6813C10.9272 17.4269 11.0001 17.1462 11 16.8616V3.51342C11.0001 3.22877 10.9272 2.94806 10.7872 2.6937C10.6473 2.43933 10.4441 2.21837 10.1939 2.04845C9.94372 1.87853 9.65347 1.76437 9.34633 1.71508C9.03919 1.66579 8.72368 1.68274 8.425 1.76457L2.425 3.40754C2.01302 3.52041 1.65189 3.75151 1.39519 4.06655C1.13849 4.38159 0.999906 4.76377 1 5.15638V15.2186C0.999906 15.6112 1.13849 15.9934 1.39519 16.3084C1.65189 16.6235 2.01302 16.8546 2.425 16.9675Z" stroke="#699BF7" stroke-width="2" stroke-linecap="round" stroke-linejoin="round"/>
</g>
<defs>
<clipPath id="clip0_161_2513">
<rect width="20" height="20" fill="white"/>
</clipPath>
</defs>
</svg>
