<svg width="20" height="19" viewBox="0 0 20 19" fill="none" xmlns="http://www.w3.org/2000/svg">
<path d="M17.8571 14.2857V10.7143C17.8568 10.3355 17.7061 9.97238 17.4383 9.70455C17.1705 9.43672 16.8073 9.28609 16.4286 9.28571H10.7143V5.71429H12.8571C13.2359 5.71391 13.5991 5.56328 13.8669 5.29545C14.1347 5.02762 14.2853 4.66448 14.2857 4.28571V1.42857C14.2853 1.04981 14.1347 0.686664 13.8669 0.418837C13.5991 0.151009 13.2359 0.000378198 12.8571 0H7.14286C6.76409 0.000378198 6.40095 0.151009 6.13312 0.418837C5.86529 0.686664 5.71466 1.04981 5.71429 1.42857V4.28571C5.71466 4.66448 5.86529 5.02762 6.13312 5.29545C6.40095 5.56328 6.76409 5.71391 7.14286 5.71429H9.28571V9.28571H3.57143C3.19266 9.28609 2.82952 9.43672 2.56169 9.70455C2.29387 9.97238 2.14324 10.3355 2.14286 10.7143V14.2857H0V20H5.71429V14.2857H3.57143V10.7143H9.28571V14.2857H7.14286V20H12.8571V14.2857H10.7143V10.7143H16.4286V14.2857H14.2857V20H20V14.2857H17.8571ZM7.14286 1.42857H12.8571V4.28571H7.14286V1.42857ZM4.28571 18.5714H1.42857V15.7143H4.28571V18.5714ZM11.4286 18.5714H8.57143V15.7143H11.4286V18.5714ZM18.5714 18.5714H15.7143V15.7143H18.5714V18.5714Z" fill="#818093"/>
</svg>
